<svg width="34" height="39" viewBox="0 0 34 39" fill="none" xmlns="http://www.w3.org/2000/svg">
<path d="M28.3138 28.3138C26.4404 30.187 22.5232 34.1042 19.8276 36.7998C18.2654 38.362 15.7354 38.3628 14.1732 36.8006C11.5247 34.152 7.68318 30.3106 5.6863 28.3138C-0.5621 22.0654 -0.5621 11.9347 5.6863 5.6863C11.9347 -0.5621 22.0654 -0.5621 28.3138 5.6863C34.562 11.9347 34.562 22.0654 28.3138 28.3138Z" stroke="#4ECDD6" stroke-width="2" stroke-linecap="round" stroke-linejoin="round"/>
<path d="M23 17C23 20.3138 20.3138 23 17 23C13.6862 23 11 20.3138 11 17C11 13.6863 13.6862 11 17 11C20.3138 11 23 13.6863 23 17Z" stroke="#4ECDD6" stroke-width="2" stroke-linecap="round" stroke-linejoin="round"/>
</svg>
