<svg width="60" height="42" viewBox="0 0 60 42" fill="none" xmlns="http://www.w3.org/2000/svg">
<path d="M45 42H12C5.382 42 0 36.618 0 30C0 24.417 3.831 19.713 9.003 18.378L9 18C9 8.073 17.073 0 27 0C34.761 0 41.472 4.914 43.95 12.045C52.776 11.307 60 18.384 60 27C60 35.271 53.271 42 45 42ZM11.715 23.982C8.691 24 6 26.691 6 30C6 33.309 8.691 36 12 36H45C49.962 36 54 31.962 54 27C54 22.038 49.962 18 45 18C44.271 18 43.5 18.123 42.57 18.39L39.345 19.311L38.787 16.002C37.812 10.206 32.856 6 27 6C20.382 6 15 11.382 15 18C15 18.816 15.081 19.635 15.246 20.433L15.978 24.03L11.715 23.982V23.982Z" fill="#4ECDD6"/>
</svg>
